<svg width="31" height="30" viewBox="0 0 31 30" fill="none" xmlns="http://www.w3.org/2000/svg">
<path d="M14.1213 12.8056C13.8618 12.8813 13.712 13.1538 13.7869 13.4149C13.8002 13.4607 15.1074 18.1318 14.7476 28.5069C14.7378 28.7789 14.9493 29.0066 15.2196 29.0154C15.2254 29.0159 15.2313 29.0159 15.2372 29.0159C15.4996 29.0159 15.7165 28.8069 15.7258 28.5413C16.0916 18.0098 14.7833 13.3352 14.728 13.1415C14.6531 12.8803 14.3823 12.7318 14.1213 12.8056Z" fill="#048730"/>
<path d="M26.4328 8.10443C24.3588 3.18148 19.5801 0 14.258 0C12.5017 0 10.789 0.344754 9.16789 1.02443C8.26993 1.40066 7.42143 1.8482 6.64587 2.35426C6.41918 2.50279 6.35455 2.80721 6.50192 3.03492C6.64979 3.26262 6.95335 3.32754 7.17956 3.17951C7.90566 2.70541 8.70129 2.2859 9.5449 1.9323C11.0466 1.3023 12.6319 0.983607 14.258 0.983607C19.1855 0.983607 23.6106 3.92902 25.5304 8.48803C26.3285 10.3834 26.7599 13.8733 26.9459 15.7854C26.9709 16.0397 27.1834 16.229 27.4326 16.229C27.4483 16.229 27.4644 16.228 27.4811 16.2266C27.7499 16.2 27.9467 15.9595 27.9203 15.689C27.6867 13.2861 27.2392 10.019 26.4328 8.10443Z" fill="#048730"/>
<path d="M5.19463 4.7759C5.38754 4.58558 5.38901 4.27377 5.19952 4.08049C5.01004 3.88721 4.70011 3.88525 4.5072 4.07557C1.87404 6.68115 -0.748843 11.5269 1.70806 19.8118C1.77122 20.0257 1.9656 20.1634 2.17711 20.1634C2.22314 20.1634 2.27014 20.1566 2.31665 20.1428C2.57566 20.0656 2.72353 19.7916 2.64617 19.5315C0.811569 13.3436 1.69239 8.24164 5.19463 4.7759Z" fill="#048730"/>
<path d="M14.634 2.95771C13.1357 2.89918 11.6777 3.17017 10.2994 3.74754C5.49819 5.75951 2.94532 11.0626 4.36178 16.0839C4.50328 16.5861 4.64821 17.1202 4.72606 17.6523C4.90134 18.8567 4.91064 21.0733 4.91064 24.5892C4.91064 24.8611 5.1295 25.081 5.40026 25.081C5.67102 25.081 5.88988 24.8611 5.88988 24.5892C5.88988 20.9213 5.88058 18.7839 5.69501 17.5092C5.60884 16.918 5.45461 16.3485 5.30381 15.8154C4.02248 11.2731 6.33201 6.47508 10.6764 4.65492C11.9239 4.13213 13.2513 3.89459 14.5992 3.93984C18.0809 4.06574 22.0272 7.14836 23.2175 10.6721C24.2476 13.7208 24.2564 18.9148 24.1286 23.5923C24.1213 23.8638 24.3348 24.09 24.605 24.0974C24.8704 24.0925 25.1005 23.8913 25.1079 23.6189C25.2376 18.8538 25.2244 13.5511 24.1448 10.3554C22.8145 6.41754 18.548 3.09836 14.634 2.95771Z" fill="#048730"/>
<path d="M14.2579 5.90164C13.7257 5.90164 13.196 5.95918 12.6824 6.07328C12.4185 6.1318 12.2515 6.39394 12.3098 6.65951C12.368 6.92459 12.626 7.08885 12.8934 7.03377C13.3375 6.93541 13.7967 6.88525 14.2575 6.88525C16.8196 6.88525 19.1208 8.41672 20.1192 10.7877C21.3089 13.6107 21.3868 18.1416 21.1121 26.0479C21.1023 26.3193 21.3138 26.5475 21.5841 26.5564C21.59 26.5569 21.5958 26.5569 21.6017 26.5569C21.8642 26.5569 22.0811 26.3479 22.0904 26.0823C22.3763 17.8579 22.2891 13.4144 21.0205 10.4041C19.8695 7.66918 17.2147 5.90164 14.2579 5.90164Z" fill="#048730"/>
<path d="M10.6216 8.03459C10.8429 7.87869 10.8968 7.5718 10.7411 7.34951C10.5863 7.12721 10.2803 7.07262 10.059 7.22951C7.53749 9.00787 6.44172 12.4244 7.33429 15.7352C7.34458 15.7711 8.3385 19.4051 8.3385 25.0815C8.3385 25.3534 8.55736 25.5733 8.82812 25.5733C9.09888 25.5733 9.31774 25.3534 9.31774 25.0815C9.31774 19.2718 8.3199 15.6231 8.27828 15.4741C7.4944 12.5656 8.43642 9.5759 10.6216 8.03459Z" fill="#048730"/>
<path d="M19.11 23.6095C19.112 23.3375 18.8946 23.1162 18.6239 23.1143C18.6229 23.1143 18.6214 23.1143 18.6204 23.1143C18.3516 23.1143 18.1328 23.3321 18.1308 23.6026C18.1284 23.9725 18.1406 24.5125 18.1538 25.0957C18.1729 25.9441 18.1945 26.9056 18.1734 27.5238C18.1636 27.7952 18.3751 28.023 18.6459 28.0318C18.6518 28.0323 18.6571 28.0323 18.663 28.0323C18.9255 28.0323 19.1424 27.8233 19.1517 27.5572C19.1742 26.9115 19.1522 25.9348 19.1326 25.0731C19.1193 24.5016 19.1076 23.972 19.11 23.6095Z" fill="#048730"/>
<path d="M14.258 9.34426C13.738 9.34426 13.2307 9.44656 12.7494 9.6482C10.8438 10.4469 9.91798 12.6064 10.5951 14.6715C10.9643 15.7972 11.2762 21.6905 11.2762 27.5405C11.2762 27.8125 11.495 28.0323 11.7658 28.0323C12.0366 28.0323 12.2554 27.8125 12.2554 27.5405C12.2554 22.2748 11.9763 15.7397 11.5259 14.3641C11.0098 12.7918 11.6987 11.1546 13.1269 10.5561C13.4878 10.4046 13.8682 10.3279 14.258 10.3279C15.4404 10.3279 16.5024 11.0351 16.9651 12.1328C17.8792 14.3061 18.1509 18.2405 18.2175 21.1589C18.2239 21.4264 18.4417 21.6393 18.7071 21.6393C18.7105 21.6393 18.7149 21.6393 18.7184 21.6393C18.9886 21.6329 19.2026 21.4077 19.1967 21.1362C19.1277 18.1333 18.8413 14.0666 17.865 11.7462C17.251 10.287 15.835 9.34426 14.258 9.34426Z" fill="#048730"/>
<path d="M30.2278 23.8525C30.2278 26.9736 27.7094 29.5 24.6075 29.5C21.5057 29.5 18.9873 26.9736 18.9873 23.8525C18.9873 20.7313 21.5057 18.2049 24.6075 18.2049C27.7094 18.2049 30.2278 20.7313 30.2278 23.8525Z" fill="white" stroke="#048730"/>
<path d="M22.018 24.0462L24.2843 25.6829L27.1963 22.1312" stroke="#048730" stroke-linecap="round"/>
</svg>
