<svg width="30" height="30" viewBox="0 0 30 30" fill="none" xmlns="http://www.w3.org/2000/svg">
<path d="M14.7882 13.2399C14.5187 13.3182 14.3631 13.5999 14.4409 13.8699C14.4547 13.9172 15.8123 18.7468 15.4386 29.4737C15.4284 29.7549 15.6481 29.9903 15.9288 29.9995C15.9349 30 15.941 30 15.9471 30C16.2196 30 16.4449 29.7839 16.4545 29.5093C16.8344 18.6207 15.4757 13.7875 15.4182 13.5872C15.3404 13.3172 15.0593 13.1636 14.7882 13.2399Z" fill="black"/>
<path d="M27.574 8.37929C25.4201 3.28938 20.4573 0 14.9301 0C13.1062 0 11.3275 0.356447 9.6439 1.05917C8.71134 1.44816 7.83014 1.91088 7.0247 2.43411C6.78928 2.58767 6.72216 2.90242 6.87521 3.13785C7.02877 3.37328 7.34403 3.4404 7.57895 3.28734C8.33303 2.79717 9.15932 2.36343 10.0354 1.99783C11.595 1.34646 13.2414 1.01697 14.9301 1.01697C20.0475 1.01697 24.6431 4.06227 26.6369 8.77591C27.4657 10.7356 27.9137 14.3438 28.1069 16.3208C28.1329 16.5837 28.3535 16.7794 28.6124 16.7794C28.6286 16.7794 28.6454 16.7784 28.6627 16.7769C28.9419 16.7494 29.1463 16.5008 29.1188 16.2211C28.8763 13.7367 28.4115 10.3588 27.574 8.37929Z" fill="black"/>
<path d="M5.51756 4.93788C5.7179 4.7411 5.71943 4.41872 5.52264 4.21888C5.32586 4.01905 5.00399 4.01702 4.80365 4.2138C2.06903 6.90774 -0.654918 11.9178 1.89665 20.4837C1.96224 20.7049 2.16411 20.8473 2.38378 20.8473C2.43157 20.8473 2.48039 20.8402 2.5287 20.8259C2.79768 20.7461 2.95124 20.4629 2.8709 20.1939C0.965618 13.7962 1.88038 8.52116 5.51756 4.93788Z" fill="black"/>
<path d="M15.3206 3.05802C13.7647 2.99751 12.2504 3.27768 10.819 3.87464C5.83286 5.95485 3.18163 11.4378 4.65267 16.6294C4.79962 17.1486 4.95013 17.7008 5.03098 18.251C5.21302 19.4963 5.22268 21.788 5.22268 25.4231C5.22268 25.7043 5.44997 25.9316 5.73116 25.9316C6.01235 25.9316 6.23965 25.7043 6.23965 25.4231C6.23965 21.6309 6.22998 19.421 6.03727 18.103C5.94778 17.4918 5.7876 16.903 5.63099 16.3518C4.30029 11.6555 6.69881 6.69469 11.2106 4.81279C12.5062 4.27228 13.8847 4.02668 15.2845 4.07346C18.9004 4.20363 22.9987 7.3908 24.2349 11.0341C25.3047 14.1862 25.3139 19.5563 25.1812 24.3924C25.1735 24.6731 25.3952 24.907 25.6759 24.9147C25.9515 24.9096 26.1905 24.7016 26.1981 24.4199C26.3329 19.4932 26.3191 14.0107 25.1979 10.7066C23.8164 6.6352 19.3855 3.20344 15.3206 3.05802Z" fill="black"/>
<path d="M14.9301 6.1018C14.3774 6.1018 13.8272 6.16129 13.2938 6.27926C13.0197 6.33977 12.8463 6.61079 12.9068 6.88537C12.9673 7.15944 13.2353 7.32928 13.5129 7.27233C13.9741 7.17063 14.4511 7.11877 14.9296 7.11877C17.5905 7.11877 19.9803 8.70218 21.0171 11.1536C22.2527 14.0723 22.3336 18.7569 22.0483 26.9313C22.0382 27.212 22.2578 27.4479 22.5385 27.4571C22.5446 27.4576 22.5507 27.4576 22.5568 27.4576C22.8294 27.4576 23.0546 27.2415 23.0643 26.9669C23.3612 18.4635 23.2707 13.8694 21.9532 10.757C20.7578 7.92929 18.0008 6.1018 14.9301 6.1018Z" fill="black"/>
<path d="M11.1535 8.30709C11.3834 8.1459 11.4393 7.82861 11.2776 7.59877C11.1169 7.36894 10.7991 7.3125 10.5693 7.4747C7.95058 9.31338 6.8126 12.8458 7.73956 16.2689C7.75024 16.306 8.78246 20.0632 8.78246 25.9321C8.78246 26.2133 9.00975 26.4406 9.29095 26.4406C9.57214 26.4406 9.79943 26.2133 9.79943 25.9321C9.79943 19.9254 8.76314 16.153 8.71992 15.9989C7.90584 12.9917 8.88416 9.90068 11.1535 8.30709Z" fill="black"/>
<path d="M19.9692 24.4102C19.9712 24.1291 19.7455 23.9002 19.4643 23.8982C19.4633 23.8982 19.4617 23.8982 19.4607 23.8982C19.1816 23.8982 18.9543 24.1235 18.9522 24.4031C18.9497 24.7855 18.9624 25.3438 18.9761 25.9469C18.996 26.824 19.0183 27.8181 18.9965 28.4573C18.9863 28.7379 19.206 28.9734 19.4872 28.9825C19.4933 28.983 19.4989 28.983 19.505 28.983C19.7775 28.983 20.0028 28.7669 20.0124 28.4918C20.0358 27.8242 20.0129 26.8144 19.9926 25.9235C19.9789 25.3326 19.9667 24.785 19.9692 24.4102Z" fill="black"/>
<path d="M14.9301 9.66118C14.3901 9.66118 13.8633 9.76695 13.3635 9.97542C11.3845 10.8012 10.4229 13.034 11.1262 15.1691C11.5095 16.333 11.8335 22.4261 11.8335 28.4746C11.8335 28.7557 12.0607 28.983 12.3419 28.983C12.6231 28.983 12.8504 28.7557 12.8504 28.4746C12.8504 23.0302 12.5606 16.2735 12.0928 14.8513C11.5568 13.2256 12.2723 11.5329 13.7555 10.9141C14.1303 10.7575 14.5254 10.6781 14.9301 10.6781C16.1581 10.6781 17.261 11.4093 17.7415 12.5443C18.6909 14.7913 18.9731 18.8591 19.0422 21.8765C19.0488 22.1531 19.2751 22.3733 19.5507 22.3733C19.5543 22.3733 19.5588 22.3733 19.5624 22.3733C19.8431 22.3667 20.0653 22.1338 20.0592 21.8531C19.9875 18.7483 19.69 14.5436 18.6761 12.1446C18.0385 10.6359 16.5679 9.66118 14.9301 9.66118Z" fill="black"/>
</svg>
